<?xml version="1.0" encoding="utf-8"?>
<!-- Generator: Adobe Illustrator 17.0.0, SVG Export Plug-In . SVG Version: 6.00 Build 0)  -->
<!DOCTYPE svg PUBLIC "-//W3C//DTD SVG 1.1//EN" "http://www.w3.org/Graphics/SVG/1.1/DTD/svg11.dtd">
<svg version="1.1" id="Layer_1" xmlns="http://www.w3.org/2000/svg" xmlns:xlink="http://www.w3.org/1999/xlink" x="0px" y="0px"
	 width="172.922px" height="42px" viewBox="0 0 172.922 42" enable-background="new 0 0 172.922 42" xml:space="preserve">
<path fill="#234463" d="M9.68,14.12v0.912c0,0.811-0.355,1.269-1.267,1.269c-0.913,0-1.267-0.458-1.267-1.269v-3.445h12.514v3.445
	c0,0.811-0.354,1.269-1.267,1.269c-0.912,0-1.267-0.458-1.267-1.269V14.12h-2.457v15.91c0,0.811-0.355,1.267-1.268,1.267
	c-0.912,0-1.267-0.456-1.267-1.267V14.12H9.68z"/>
<path fill="#36A9E1" d="M39.295,18.923l-2.218-4.415l-0.317-0.634c-0.296-0.57-0.676-1.056-1.141-1.415
	c-0.528-0.422-1.183-0.676-1.922-0.676c-1.415,0-2.45,0.887-3.063,2.091L28.1,18.923c-0.486,0.972-0.655,1.711-0.655,2.809
	c0,1.204,0.317,1.964,0.824,2.999l2.345,4.668c0.591,1.225,1.605,2.112,3.084,2.112c0.739,0,1.352-0.211,1.859-0.592
	c-0.486-0.38-0.866-0.887-1.162-1.457l-0.296-0.613c-0.106,0.084-0.232,0.127-0.401,0.127c-0.507,0-0.697-0.422-0.866-0.76
	l-2.429-4.816c-0.275-0.57-0.422-1.014-0.422-1.669c0-0.845,0.19-1.331,0.57-2.049l2.281-4.605c0.211-0.401,0.338-0.76,0.866-0.76
	c0.19,0,0.338,0.042,0.444,0.148c0.19,0.127,0.296,0.359,0.422,0.613l1.035,2.112l1.246,2.493c0.38,0.718,0.57,1.204,0.57,2.049
	c0,0.655-0.148,1.098-0.422,1.669l-1.415,2.809l1.035,2.049c0.127,0.232,0.232,0.486,0.444,0.613l2.07-4.14
	c0.486-1.035,0.824-1.795,0.824-2.999C39.95,20.633,39.781,19.894,39.295,18.923z"/>
<path fill="#234463" d="M43.076,18.965l-2.535-5.027c-0.591-1.204-1.648-2.091-3.063-2.091c-0.718,0-1.331,0.232-1.859,0.613
	c-0.507,0.359-0.908,0.887-1.204,1.479l-0.275,0.528l-2.26,4.499c-0.486,0.993-0.655,1.732-0.655,2.809
	c0,1.225,0.338,1.986,0.845,3.021l2.028,4.056c0.211-0.148,0.338-0.401,0.465-0.634l1.014-2.007l-1.394-2.746
	c-0.275-0.57-0.422-1.014-0.422-1.69c0-0.824,0.211-1.31,0.591-2.049l1.246-2.535l1.014-2.049c0.148-0.275,0.253-0.528,0.465-0.634
	c0.106-0.085,0.232-0.127,0.401-0.127c0.528,0,0.655,0.359,0.866,0.76l2.281,4.584c0.38,0.739,0.591,1.225,0.591,2.049
	c0,0.676-0.169,1.119-0.444,1.69l-2.429,4.795c-0.169,0.359-0.359,0.761-0.866,0.761c-0.169,0-0.317-0.042-0.422-0.148L36.782,29.4
	c-0.317,0.613-0.718,1.141-1.225,1.521c0.528,0.401,1.162,0.634,1.922,0.634c1.479,0,2.493-0.887,3.105-2.091l2.323-4.668
	c0.507-1.035,0.824-1.796,0.824-3.021C43.731,20.697,43.562,19.958,43.076,18.965z"/>
<path fill="#36A9E1" d="M37.056,28.872L36.782,29.4c-0.317,0.613-0.718,1.141-1.225,1.521c-0.486-0.38-0.866-0.887-1.162-1.457
	l-0.296-0.613c0.211-0.148,0.338-0.401,0.465-0.634l1.014-2.007l1.035,2.049C36.739,28.491,36.845,28.745,37.056,28.872z"/>
<path fill="#234463" d="M57.84,30.03c0,0.811-0.355,1.267-1.267,1.267c-0.913,0-1.267-0.456-1.267-1.267V11.586h8.41
	c1.165,0,2.002,0.177,2.914,1.04c1.089,1.013,1.19,1.949,1.19,3.319v3.445c0,1.291-0.101,2.203-1.039,3.243
	c-0.988,1.114-2.027,1.215-3.394,1.215H57.84V30.03z M57.84,21.315h5.624c1.494,0,1.824-0.38,1.824-1.824v-3.546
	c0-1.444-0.329-1.826-1.824-1.826H57.84V21.315z"/>
<path fill="#234463" d="M90.635,26.989c0,0.963,0,1.572-0.481,2.432c-0.862,1.444-2.129,1.875-3.699,1.875h-1.47
	c-1.419,0-2.635-0.254-3.547-1.469c-0.633-0.837-0.785-1.545-0.785-2.56v-3.674c0-0.809,0.355-1.267,1.267-1.267
	c0.912,0,1.267,0.458,1.267,1.267v3.294c0,1.469,0.304,1.875,1.799,1.875h1.393c1.063,0,1.722-0.153,1.722-1.368V12.853
	c0-0.811,0.355-1.267,1.267-1.267c0.912,0,1.267,0.456,1.267,1.267V26.989z"/>
<path fill="#234463" d="M108.431,12.88c0.202-0.685,0.482-1.293,1.292-1.293c0.835,0,1.14,0.633,1.317,1.293l4.889,17.15
	c0.177,0.609-0.506,1.267-1.216,1.267c-0.785,0-1.19-0.658-1.368-1.267l-0.938-3.041h-5.396l-0.962,3.041
	c-0.177,0.609-0.583,1.267-1.368,1.267c-0.71,0-1.393-0.658-1.216-1.267L108.431,12.88z M109.748,17.591h-0.051l-1.976,6.865h3.977
	L109.748,17.591z"/>
<path fill="#234463" d="M137.527,16.906v-4.053c0-0.811,0.355-1.267,1.267-1.267c0.913,0,1.267,0.456,1.267,1.267v4.004
	c0,0.328-0.025,0.683-0.152,0.988l-4.838,12.338c-0.254,0.633-0.482,1.114-1.268,1.114c-0.785,0-1.013-0.481-1.267-1.114
	l-4.838-12.338c-0.127-0.305-0.152-0.66-0.152-0.988v-4.004c0-0.811,0.354-1.267,1.267-1.267c0.912,0,1.267,0.456,1.267,1.267v4.053
	l3.723,9.679L137.527,16.906z"/>
<path fill="#234463" d="M156.591,12.88c0.202-0.685,0.482-1.293,1.292-1.293c0.835,0,1.14,0.633,1.317,1.293l4.889,17.15
	c0.177,0.609-0.506,1.267-1.216,1.267c-0.785,0-1.19-0.658-1.368-1.267l-0.938-3.041h-5.396l-0.962,3.041
	c-0.177,0.609-0.583,1.267-1.368,1.267c-0.71,0-1.393-0.658-1.216-1.267L156.591,12.88z M157.909,17.591h-0.051l-1.976,6.865h3.977
	L157.909,17.591z"/>
</svg>
